<?xml version="1.0" standalone="no"?>
<!DOCTYPE svg PUBLIC "-//W3C//DTD SVG 20010904//EN"
 "http://www.w3.org/TR/2001/REC-SVG-20010904/DTD/svg10.dtd">
<svg version="1.0" xmlns="http://www.w3.org/2000/svg"
 width="280.000000pt" height="280.000000pt" viewBox="0 0 280.000000 280.000000"
 preserveAspectRatio="xMidYMid meet">
<metadata>
Created by potrace 1.14, written by Peter Selinger 2001-2017
</metadata>
<g transform="translate(0.000000,280.000000) scale(0.100000,-0.100000)"
fill="#000000" stroke="none">
<path d="M20 2615 l0 -124 103 -4 102 -3 -102 -2 -103 -2 0 -165 0 -165 53 0
c28 0 109 3 179 7 l128 6 3 256 c2 141 3 47 2 -209 -1 -302 1 -453 7 -430 57
215 176 369 350 454 51 26 125 53 163 61 93 20 301 19 385 -1 228 -53 406
-235 465 -476 l19 -78 46 0 c25 0 82 3 128 7 l82 6 -2 221 -3 221 -83 3 c-74
3 -83 5 -77 20 4 9 12 29 17 45 l10 27 271 0 272 0 21 -45 20 -44 -105 -3
-106 -3 -3 -632 -2 -633 70 0 c66 0 70 -1 84 -27 8 -16 26 -39 41 -53 l27 -25
-244 -5 c-133 -3 -280 -3 -324 0 l-82 5 30 53 30 52 69 0 69 0 0 400 0 400
-124 0 -123 0 5 -112 c12 -286 -97 -529 -295 -659 -85 -55 -82 -59 54 -66 91
-6 92 -5 121 24 22 21 31 43 37 81 4 35 12 52 21 52 11 0 14 -17 14 -75 0
-131 -38 -249 -96 -294 -69 -54 -148 -50 -353 19 -64 21 -168 52 -231 69 -243
62 -358 119 -470 231 -66 66 -132 162 -156 227 -9 27 -23 53 -30 59 -8 6 -11
13 -9 16 3 3 -1 34 -9 69 -12 50 -15 139 -15 414 l0 350 -175 3 -176 2 0 -200
0 -200 173 -3 172 -3 -172 -2 -173 -2 0 -210 0 -210 170 0 170 0 1 53 1 52 9
-40 c4 -22 8 -228 8 -457 l1 -418 453 -3 452 -2 -452 -3 -452 -2 -4 -67 -3
-68 -2 68 -2 67 -175 0 -175 0 0 -215 0 -215 1365 0 1365 0 0 215 0 214 -157
4 -158 3 158 2 157 2 1 288 c1 158 3 508 6 777 2 270 1 644 -3 833 l-6 342
-479 0 -479 0 -1 -177 c-1 -98 -5 -221 -9 -273 -4 -56 -6 18 -2 178 l5 272
-882 0 -881 0 0 -125z m1367 -57 c-2 -35 -3 -9 -3 57 0 66 1 94 3 63 2 -32 2
-86 0 -120z m690 0 c-2 -29 -3 -6 -3 52 0 58 1 81 3 53 2 -29 2 -77 0 -105z
m210 -15 c-2 -32 -3 -6 -3 57 0 63 1 89 3 58 2 -32 2 -84 0 -115z m-319 -1210
c-16 -2 -40 -2 -55 0 -16 2 -3 4 27 4 30 0 43 -2 28 -4z m-571 -1085 c-1 -46
-3 -9 -3 82 0 91 2 128 3 83 2 -46 2 -120 0 -165z m-390 155 c-2 -16 -4 -5 -4
22 0 28 2 40 4 28 2 -13 2 -35 0 -50z"/>
<path d="M978 2197 c-161 -46 -281 -196 -324 -407 -25 -125 -16 -343 20 -463
31 -104 50 -144 104 -216 48 -63 115 -113 186 -138 76 -27 223 -24 299 6 122
48 223 179 269 348 28 107 32 403 5 503 -43 161 -132 282 -252 341 -58 28 -77
32 -163 35 -60 3 -115 -1 -144 -9z m99 -924 c-1 -87 -3 -16 -3 157 0 173 2
244 3 158 2 -87 2 -229 0 -315z m266 460 c-45 -2 -122 -2 -170 0 -48 1 -11 3
82 3 94 0 133 -2 88 -3z m-465 -440 c-32 -2 -86 -2 -120 0 -35 2 -9 3 57 3 66
0 94 -1 63 -3z"/>
<path d="M20 1090 l0 -200 170 0 170 0 0 200 0 200 -170 0 -170 0 0 -200z"/>
<path d="M20 685 l0 -185 175 0 175 0 0 185 0 185 -175 0 -175 0 0 -185z"/>
</g>
</svg>
